<svg width="24" height="24" viewBox="0 0 24 24" fill="none" xmlns="http://www.w3.org/2000/svg">
<path d="M7 6.66666H6V8.66666H4V9.66666H6V11.6667H7V6.66666Z" fill="black"/>
<path d="M10 6.66666V5.66666H7V6.66666H10Z" fill="black"/>
<path d="M10 11.6667H11V9.66666H20V8.66666H11V6.66666H10V11.6667Z" fill="black"/>
<path d="M7 11.6667V12.6667H10V11.6667H7Z" fill="black"/>
<path d="M4 14.6667V15.6667H13V17.6667H14V12.6667H13V14.6667H4Z" fill="black"/>
<path d="M14 11.6667V12.6667H17V11.6667H14Z" fill="black"/>
<path d="M20 15.6667V14.6667H18V12.6667H17V17.6667H18V15.6667H20Z" fill="black"/>
<path d="M14 17.6667V18.6667H17V17.6667H14Z" fill="black"/>
</svg>
