<svg width="24" height="24" viewBox="0 0 24 24" fill="none" xmlns="http://www.w3.org/2000/svg">
<path d="M8.66667 4.66666V5.66666H10.6667V6.66666H11.6667V5.66666H12.6667V6.66666H13.6667V5.66666H15.6667V4.66666H8.66667Z" fill="black"/>
<path d="M7.66667 5.66666H6.66667V6.66666H8.66667V5.66666H7.66667Z" fill="black"/>
<path d="M5.66667 8.66666H6.66667V6.66666H5.66667L5.66667 7.66666V8.66666Z" fill="black"/>
<path d="M8.66667 15.6667H9.66667V12.6667H14.6667V15.6667H15.6667V12.6667H18.6667V15.6667H19.6667V8.66666H18.6667V11.6667H15.6667V8.66666H14.6667V11.6667H9.66667V8.66666H8.66667V11.6667H5.66667V8.66666H4.66667V15.6667H5.66667L5.66667 12.6667H8.66667V15.6667Z" fill="black"/>
<path d="M9.66667 8.66666H10.6667V6.66666H9.66667V8.66666Z" fill="black"/>
<path d="M13.6667 8.66666H14.6667V6.66666H13.6667V8.66666Z" fill="black"/>
<path d="M17.6667 6.66666V5.66666H15.6667V6.66666H17.6667Z" fill="black"/>
<path d="M17.6667 8.66666H18.6667V6.66666H17.6667V8.66666Z" fill="black"/>
<path d="M18.6667 15.6667H17.6667V17.6667H18.6667V15.6667Z" fill="black"/>
<path d="M17.6667 18.6667V17.6667H15.6667V18.6667H17.6667Z" fill="black"/>
<path d="M14.6667 15.6667H13.6667V17.6667H14.6667V15.6667Z" fill="black"/>
<path d="M8.66667 18.6667V19.6667H15.6667V18.6667H13.6667V17.6667H12.6667V18.6667H11.6667V17.6667H10.6667V18.6667H8.66667Z" fill="black"/>
<path d="M10.6667 15.6667H9.66667V17.6667H10.6667V15.6667Z" fill="black"/>
<path d="M6.66667 17.6667V18.6667H8.66667V17.6667H6.66667Z" fill="black"/>
<path d="M6.66667 15.6667H5.66667V17.6667H6.66667V15.6667Z" fill="black"/>
</svg>
