<svg width="24" height="24" viewBox="0 0 24 24" fill="none" xmlns="http://www.w3.org/2000/svg">
<path d="M14.3333 5.66667H13.3333V4.66667H14.3333V5.66667Z" fill="black"/>
<path d="M17.3333 19.6667H16.3333V18.6667H17.3333V19.6667Z" fill="black"/>
<path d="M9.33333 19.6667H8.33333V18.6667H9.33333V19.6667Z" fill="black"/>
<path d="M9.33333 8.66667H8.33333V7.66667H9.33333V8.66667Z" fill="black"/>
<path d="M17.3333 8.66667H16.3333V7.66667H17.3333V8.66667Z" fill="black"/>
<path d="M7.33333 6.66667H6.33333V5.66667H7.33333V6.66667Z" fill="black"/>
<path d="M17.3333 12.6667V11.6667V8.66667H18.3333V18.6667H17.3333V12.6667Z" fill="black"/>
<path d="M7.33333 5.66667V4.66667H9.33333V5.66667H7.33333Z" fill="black"/>
<path d="M15.3333 4.66667H14.3333V2.66667H15.3333V4.66667Z" fill="black"/>
<path d="M8.33333 18.6667H7.33333V8.66667H8.33333V11.6667H12.3333V7.66667H9.33333V6.66667H12.3333V5.66667H13.3333V6.66667H16.3333V7.66667H13.3333V11.6667H17.3333V12.6667H8.33333V18.6667Z" fill="black"/>
<path d="M5.33333 6.66667H6.33333V8.66667H5.33333V6.66667Z" fill="black"/>
<path d="M16.3333 19.6667V20.6667H9.33333V19.6667H16.3333Z" fill="black"/>
</svg>
