<svg width="16" height="22" viewBox="0 0 16 22" fill="none" xmlns="http://www.w3.org/2000/svg">
<path d="M0 14.6667C0 16.4348 0.702379 18.1305 1.95262 19.3807C3.20286 20.631 4.89856 21.3333 6.66667 21.3333H9.33333C10.2088 21.3333 11.0757 21.1609 11.8846 20.8259C12.6934 20.4908 13.4283 19.9998 14.0474 19.3807C14.6664 18.7617 15.1575 18.0267 15.4925 17.2179C15.8276 16.409 16 15.5421 16 14.6667V9.33333H0V14.6667ZM7.33333 0H6.66667C4.89856 0 3.20286 0.702379 1.95262 1.95262C0.702379 3.20286 0 4.89856 0 6.66667L0 8H7.33333V0ZM9.33333 0H8.66667V8H16V6.66667C16 5.79119 15.8276 4.92428 15.4925 4.11544C15.1575 3.30661 14.6664 2.57168 14.0474 1.95262C13.4283 1.33356 12.6934 0.842501 11.8846 0.50747C11.0757 0.172438 10.2088 0 9.33333 0Z" fill="white"/>
</svg>
